<svg xmlns="http://www.w3.org/2000/svg" viewBox="0 0 1274.29 148.77"><defs><style>.cls-1{isolation:isolate;}.cls-13,.cls-2,.cls-21,.cls-26{font-size:21.92px;font-family:AkkuratStd-Light, Akkurat Std;}.cls-2{fill:#808184;}.cls-3{letter-spacing:-0.02em;}.cls-4{letter-spacing:0.03em;}.cls-5{letter-spacing:-0.01em;}.cls-6{letter-spacing:-0.01em;}.cls-7{letter-spacing:0.03em;}.cls-11,.cls-12,.cls-8,.cls-9{fill:none;}.cls-8{stroke:#93c166;}.cls-12,.cls-8,.cls-9{stroke-linecap:round;stroke-linejoin:round;stroke-width:8.77px;mix-blend-mode:multiply;}.cls-9{stroke:#f27165;}.cls-10{fill:#fff;}.cls-10,.cls-11{stroke:#808184;stroke-miterlimit:10;stroke-width:1.1px;}.cls-12{stroke:#6e99d0;}.cls-13{fill:#f27165;letter-spacing:-0.01em;}.cls-14{letter-spacing:-0.01em;}.cls-15{letter-spacing:-0.02em;}.cls-16{letter-spacing:-0.02em;}.cls-17{letter-spacing:-0.03em;}.cls-18{letter-spacing:-0.01em;}.cls-19{letter-spacing:0.03em;}.cls-20{letter-spacing:0em;}.cls-21,.cls-35{fill:#6e99d0;}.cls-22{letter-spacing:-0.01em;}.cls-23{letter-spacing:-0.02em;}.cls-24{letter-spacing:-0.02em;}.cls-25{letter-spacing:-0.01em;}.cls-26,.cls-36{fill:#929497;}.cls-27{letter-spacing:-0.01em;}.cls-28{letter-spacing:-0.01em;}.cls-29{letter-spacing:-0.01em;}.cls-30{letter-spacing:-0.03em;}.cls-31{letter-spacing:-0.01em;}.cls-32{letter-spacing:-0.01em;}.cls-33{letter-spacing:-0.01em;}.cls-34{letter-spacing:-0.02em;}.cls-37{fill:#f37655;}</style></defs><title>tomorrow_process_path</title><g class="cls-1"><g id="Layer_1" data-name="Layer 1"><text class="cls-2" transform="translate(18.73 100.24) rotate(-90)"><tspan class="cls-3">e</tspan><tspan class="cls-4" x="11.45" y="0">f</tspan><tspan class="cls-5" x="19.81" y="0">f</tspan><tspan class="cls-6" x="27.26" y="0">o</tspan><tspan class="cls-7" x="38.91" y="0">r</tspan><tspan x="47.88" y="0">t</tspan></text><path class="cls-8" d="M1279.17,103h-65.53a32.88,32.88,0,0,1-29.41-18.17l-25.66-51.33a32.88,32.88,0,0,0-29.41-18.17H871.71A32.88,32.88,0,0,0,842.3,33.49L838.56,41a32.88,32.88,0,0,1-29.41,18.17H225.25a32.88,32.88,0,0,0-29.41,18.17l-3.74,7.49A32.88,32.88,0,0,1,162.69,103H66.34" transform="translate(-9.26 -7.54)"/><path class="cls-9" d="M1279.17,103H1070.58l-43.84-43.84L982.9,103,939.06,59.16,895.23,103,851.39,59.16,807.55,103H566.82a32.88,32.88,0,0,1-29.41-18.17L511.75,33.49a32.88,32.88,0,0,0-29.41-18.17H217.95a32.88,32.88,0,0,0-29.41,18.17L162.88,84.82A32.88,32.88,0,0,1,133.47,103H66.34" transform="translate(-9.26 -7.54)"/><line class="cls-10" x1="35.37" y1="0.77" x2="35.37" y2="100.93"/><polyline class="cls-11" points="28.06 8.08 35.37 0.78 42.68 8.08"/><path class="cls-12" d="M66.34,103H226.85a21.92,21.92,0,0,0,21.92-21.92V37.24a21.92,21.92,0,0,1,21.92-21.92h0a21.92,21.92,0,0,1,21.92,21.92V81.08A21.92,21.92,0,0,0,314.53,103h0a21.92,21.92,0,0,0,21.92-21.92V37.24a21.92,21.92,0,0,1,21.92-21.92h0a21.92,21.92,0,0,1,21.92,21.92V81.08A21.92,21.92,0,0,0,402.2,103h0a21.92,21.92,0,0,0,21.92-21.92V37.24A21.92,21.92,0,0,1,446,15.32h0A21.92,21.92,0,0,1,468,37.24V59.13A21.92,21.92,0,0,0,489.87,81H851.39a21.92,21.92,0,0,0,21.92-21.92V37.24a21.92,21.92,0,0,1,21.92-21.92h0a21.92,21.92,0,0,1,21.92,21.92V81.08A21.92,21.92,0,0,0,939.06,103h0A21.92,21.92,0,0,0,961,81.08V37.24A21.92,21.92,0,0,1,982.9,15.32h0a21.92,21.92,0,0,1,21.92,21.92V81.08A21.92,21.92,0,0,0,1026.74,103h0a21.92,21.92,0,0,0,21.92-21.92V37.24a21.92,21.92,0,0,1,21.92-21.92h0a21.92,21.92,0,0,1,21.92,21.92V81.08A21.92,21.92,0,0,0,1114.41,103h164.75" transform="translate(-9.26 -7.54)"/><text class="cls-13" transform="translate(72.58 143.4)">s<tspan class="cls-14" x="11.07" y="0">t</tspan><tspan class="cls-15" x="18.86" y="0">r</tspan><tspan class="cls-16" x="26.87" y="0">a</tspan><tspan class="cls-17" x="38.71" y="0">t</tspan><tspan class="cls-18" x="46.26" y="0">e</tspan><tspan class="cls-19" x="57.85" y="0">g</tspan><tspan class="cls-20" x="70.18" y="0">y</tspan></text><text class="cls-21" transform="translate(195.52 143.4)"><tspan class="cls-6">d</tspan><tspan class="cls-22" x="12.48" y="0">e</tspan><tspan class="cls-23" x="24.18" y="0">s</tspan><tspan class="cls-24" x="34.97" y="0">i</tspan><tspan class="cls-25" x="40.17" y="0">g</tspan><tspan x="51.58" y="0">n</tspan></text><text class="cls-26" transform="translate(304.5 143.4)"><tspan class="cls-6">d</tspan><tspan class="cls-27" x="12.48" y="0">e</tspan><tspan class="cls-28" x="24.07" y="0">v</tspan><tspan class="cls-29" x="34.01" y="0">e</tspan><tspan class="cls-30" x="45.57" y="0">l</tspan><tspan class="cls-6" x="51.11" y="0">o</tspan><tspan class="cls-31" x="62.76" y="0">p</tspan><tspan class="cls-32" x="75.26" y="0">m</tspan><tspan class="cls-33" x="94.22" y="0">e</tspan><tspan class="cls-34" x="105.75" y="0">n</tspan><tspan x="118.15" y="0">t</tspan></text><circle class="cls-35" cx="179.97" cy="136.86" r="5.97"/><circle class="cls-36" cx="288.2" cy="136.86" r="5.97"/><circle class="cls-37" cx="57.51" cy="136.86" r="5.97"/></g></g></svg>